Coordinates
version=1
nRows=19
nColumns=24
inDegrees=yes

Units are S.I. units (second, meters, Newtons, ...)
Angles are in degrees.

endheader
time	pelvis_tilt	pelvis_list	pelvis_rotation	pelvis_tx	pelvis_ty	pelvis_tz	hip_flexion_r	hip_adduction_r	hip_rotation_r	knee_angle_r	ankle_angle_r	subtalar_angle_r	mtp_angle_r	hip_flexion_l	hip_adduction_l	hip_rotation_l	knee_angle_l	ankle_angle_l	subtalar_angle_l	mtp_angle_l	lumbar_extension	lumbar_bending	lumbar_rotation
      0.96300000	      0.59065356	     -4.03687925	      0.41523011	     -0.38498839	      1.00386309	      0.35157886	      6.85528784	      9.64154081	      3.68257314	    -15.32018341	      5.07748398	    -16.97139927	     -2.65655798	     18.03217695	     -5.20602473	      0.99865430	    -69.27878146	     -3.52975196	    -12.78944580	      1.16108145	      1.09608876	      7.69619131	      2.67281680
      0.96716667	      0.58839611	     -3.95856469	      0.33687644	     -0.38049525	      1.00430560	      0.35184473	      6.39648863	      9.55186447	      3.71028505	    -14.99174685	      5.13082425	    -16.77853691	     -2.73787552	     18.61875464	     -5.12620365	      0.96215598	    -69.03387420	     -2.99852783	    -12.72531393	      1.06965023	      1.01720265	      7.59308655	      2.82719572
      0.97133333	      0.56019918	     -3.87284906	      0.27380484	     -0.37602279	      1.00470100	      0.35207364	      5.96660552	      9.45456460	      3.75142783	    -14.66404865	      5.20932054	    -16.68032561	     -2.75071349	     19.22571692	     -5.01743730	      0.95662944	    -68.73928002	     -2.56431987	    -12.79086071	      1.05838663	      0.96979006	      7.47106724	      2.87426422
      0.97550000	      0.58659952	     -3.80298937	      0.17341824	     -0.37153927	      1.00511799	      0.35235322	      5.48511173	      9.37109989	      3.78487841	    -14.34752664	      5.20649474	    -16.44475476	     -2.79652200	     19.75126258	     -4.96281548	      0.88926823	    -68.41835085	     -1.94427944	    -12.57536138	      1.01388604	      0.84529147	      7.38607300	      3.03751533
      0.97966667	      0.58508833	     -3.72264639	      0.09456884	     -0.36705894	      1.00547973	      0.35257607	      5.03387133	      9.27260860	      3.81096641	    -14.03364629	      5.26785775	    -16.25182030	     -2.83464024	     20.29840209	     -4.87355845	      0.85904541	    -68.04753988	     -1.44358041	    -12.46215162	      0.97413147	      0.76376652	      7.30019957	      3.16757316
      0.98383333	      0.58721911	     -3.64905722	      0.02227461	     -0.36258368	      1.00582177	      0.35280154	      4.57777159	      9.18052555	      3.82978480	    -13.71445538	      5.32539978	    -16.03826275	     -2.87281016	     20.83233139	     -4.79346021	      0.83501333	    -67.64052621	     -0.96642224	    -12.30940152	      0.93427923	      0.67397728	      7.19540992	      3.30052134
      0.98800000	      0.58287162	     -3.57801951	     -0.05547716	     -0.35811403	      1.00612134	      0.35300620	      4.13447760	      9.08878442	      3.85561605	    -13.40768088	      5.38401802	    -15.83694761	     -2.90304201	     21.35852405	     -4.71143814	      0.81298258	    -67.19325774	     -0.49573326	    -12.15608996	      0.90396319	      0.59501110	      7.11939749	      3.41494420
      0.99216667	      0.58109849	     -3.50689754	     -0.12995020	     -0.35364806	      1.00639197	      0.35320798	      3.68971946	      8.99529310	      3.87111464	    -13.10128151	      5.44709879	    -15.62368816	     -2.93058247	     21.87021427	     -4.63036382	      0.79222918	    -66.70980681	     -0.04297898	    -11.96542704	      0.87641918	      0.50966459	      7.02824701	      3.53284612
      0.99633333	      0.58795755	     -3.44257169	     -0.20240029	     -0.34915809	      1.00665597	      0.35340919	      3.23127519	      8.90712526	      3.87026666	    -12.78715826	      5.51696623	    -15.38943515	     -2.95955186	     22.35636970	     -4.56132192	      0.76629191	    -66.18432936	      0.38114908	    -11.74991241	      0.84590747	      0.43319016	      6.94436997	      3.66363817
      1.00050000	      0.58576387	     -3.38140075	     -0.27613742	     -0.34469232	      1.00687075	      0.35359188	      2.78940575	      8.82074357	      3.87957763	    -12.48478122	      5.58431235	    -15.16588778	     -2.98410862	     22.84132913	     -4.48952038	      0.75059909	    -65.62579127	      0.79558162	    -11.52578634	      0.81965526	      0.35392267	      6.87515176	      3.77807514
      1.00466667	      0.58724556	     -3.30751564	     -0.35476503	     -0.34021482	      1.00709253	      0.35377868	      2.34193852	      8.72017844	      3.89931430	    -12.18055651	      5.64453650	    -14.95420603	     -3.00278920	     23.29918208	     -4.40434753	      0.72686176	    -65.01558550	      1.18586038	    -11.30697179	      0.80005652	      0.26905938	      6.77978457	      3.88412567
      1.00883333	      0.57489742	     -3.26146895	     -0.42856744	     -0.33574293	      1.00722220	      0.35396146	      1.91142587	      8.64931425	      3.90720834	    -11.87812303	      5.71356589	    -14.72744432	     -3.01965317	     23.76978210	     -4.35129477	      0.71330828	    -64.39143773	      1.56656904	    -11.04778975	      0.78101577	      0.20750881	      6.72216388	      4.00105550
      1.01300000	      0.59385330	     -3.20755375	     -0.49235481	     -0.33126193	      1.00738401	      0.35412644	      1.44416349	      8.56582763	      3.89260184	    -11.56910315	      5.79783323	    -14.47070225	     -3.04078989	     24.18720115	     -4.28646467	      0.70408594	    -63.72104538	      1.91658517	    -10.78336667	      0.75153223	      0.10593123	      6.64914947	      4.14008820
      1.01716667	      0.56934372	     -3.14450267	     -0.58397166	     -0.32679047	      1.00747077	      0.35431728	      1.03356002	      8.47487921	      3.92448671	    -11.28083238	      5.85106565	    -14.27273138	     -3.05062636	     24.62781582	     -4.21901912	      0.67125200	    -63.00588067	      2.25379999	    -10.53992600	      0.73817827	      0.05832400	      6.57422198	      4.22706734
      1.02133333	      0.55299305	     -3.08821960	     -0.66232555	     -0.32231418	      1.00752976	      0.35448784	      0.61154438	      8.38887933	      3.93581811	    -10.98548729	      5.91902177	    -14.06299006	     -3.05686903	     25.04954832	     -4.15507860	      0.65045282	    -62.26237393	      2.57180527	    -10.27823843	      0.72707929	     -0.00022179	      6.50344405	      4.32793223
      1.02550000	      0.56392885	     -3.04750889	     -0.72943981	     -0.31783195	      1.00758717	      0.35464512	      0.15790491	      8.31677797	      3.91902186	    -10.68429333	      6.00765353	    -13.79736664	     -3.06471423	     25.42985834	     -4.10675336	      0.63901529	    -61.49002369	      2.86677333	    -10.00923062	      0.70367600	     -0.09073692	      6.45116485	      4.46855063
      1.02966667	      0.54483001	     -2.98189203	     -0.82532813	     -0.31334708	      1.00760641	      0.35483749	     -0.25471677	      8.22011642	      3.94934092	    -10.40280264	      6.06843380	    -13.60809532	     -3.06567171	     25.81180883	     -4.04196645	      0.59400097	    -60.66214028	      3.13076743	     -9.77029645	      0.69424906	     -0.13665452	      6.36699184	      4.54619550
      1.03383333	      0.52999163	     -2.94262707	     -0.90652124	     -0.30886451	      1.00758096	      0.35500076	     -0.67755432	      8.14973110	      3.96844379	    -10.10642866	      6.13846475	    -13.40390102	     -3.06381640	     26.18427540	     -4.00310167	      0.56375873	    -59.81793131	      3.38644699	     -9.51614922	      0.68648643	     -0.19662635	      6.31614006	      4.64231234
      1.03800000	      0.49443620	     -2.90801785	     -0.98748455	     -0.30438520	      1.00747753	      0.35516783	     -1.07088980	      8.08537220	      3.98723161	     -9.82407324	      6.21614610	    -13.21073928	     -3.05932238	     26.56634673	     -3.96931045	      0.53603403	    -58.94723706	      3.61919273	     -9.27999133	      0.67970783	     -0.23023926	      6.26841055	      4.73241149
